<svg width="173" height="65" viewBox="0 0 173 65" fill="none" xmlns="http://www.w3.org/2000/svg">
<path d="M19.1556 46.1919C22.0356 47.8559 25.1236 48.9279 28.4196 49.4079V21.9999H36.1956V49.4079C39.4916 48.9279 42.5956 47.8559 45.5076 46.1919L48.1476 51.9999C45.8436 53.3759 43.3476 54.4159 40.6596 55.1199C37.9716 55.8239 35.2036 56.1759 32.3556 56.1759C29.4756 56.1759 26.6916 55.8239 24.0036 55.1199C21.2836 54.4159 18.7876 53.3759 16.5156 51.9999L19.1556 46.1919Z" fill="#E63946"/>
<path d="M32 49.9999C43.0457 49.9999 52 43.2842 52 34.9999C52 26.7156 43.0457 19.9999 32 19.9999C20.9543 19.9999 12 26.7156 12 34.9999C12 43.2842 20.9543 49.9999 32 49.9999Z" fill="white"/>
<path d="M32.4793 8.82401C35.5833 8.82401 38.2873 9.432 40.5913 10.648C42.8953 11.864 44.6873 13.656 45.9673 16.024C47.2473 18.392 47.8873 21.256 47.8873 24.616V43H40.1113V34.936H24.7513V43H17.0713V24.616C17.0713 21.256 17.7113 18.392 18.9913 16.024C20.2713 13.656 22.0633 11.864 24.3673 10.648C26.6713 9.432 29.3753 8.82401 32.4793 8.82401ZM40.1113 28.696V23.896C40.1113 21.112 39.4233 19.016 38.0473 17.608C36.6713 16.168 34.7993 15.448 32.4313 15.448C30.0313 15.448 28.1433 16.168 26.7673 17.608C25.4233 19.016 24.7513 21.112 24.7513 23.896V28.696H40.1113ZM62.1864 20.584C63.0824 19.336 64.2824 18.392 65.7864 17.752C67.3224 17.112 69.0824 16.792 71.0664 16.792V23.704C70.2344 23.64 69.6744 23.608 69.3864 23.608C67.2424 23.608 65.5624 24.216 64.3464 25.432C63.1304 26.616 62.5224 28.408 62.5224 30.808V43H55.0344V17.176H62.1864V20.584ZM87.7644 43.384C85.0124 43.384 82.5324 42.824 80.3244 41.704C78.1484 40.552 76.4364 38.968 75.1884 36.952C73.9724 34.936 73.3644 32.648 73.3644 30.088C73.3644 27.528 73.9724 25.24 75.1884 23.224C76.4364 21.208 78.1484 19.64 80.3244 18.52C82.5324 17.368 85.0124 16.792 87.7644 16.792C90.4844 16.792 92.8524 17.368 94.8684 18.52C96.9164 19.64 98.4044 21.256 99.3324 23.368L93.5244 26.488C92.1804 24.12 90.2444 22.936 87.7164 22.936C85.7644 22.936 84.1484 23.576 82.8684 24.856C81.5884 26.136 80.9484 27.88 80.9484 30.088C80.9484 32.296 81.5884 34.04 82.8684 35.32C84.1484 36.6 85.7644 37.24 87.7164 37.24C90.2764 37.24 92.2124 36.056 93.5244 33.688L99.3324 36.856C98.4044 38.904 96.9164 40.504 94.8684 41.656C92.8524 42.808 90.4844 43.384 87.7644 43.384ZM143.916 43.384C141.196 43.384 138.748 42.824 136.572 41.704C134.428 40.552 132.748 38.968 131.532 36.952C130.316 34.936 129.708 32.648 129.708 30.088C129.708 27.528 130.316 25.24 131.532 23.224C132.748 21.208 134.428 19.64 136.572 18.52C138.748 17.368 141.196 16.792 143.916 16.792C146.636 16.792 149.068 17.368 151.212 18.52C153.356 19.64 155.036 21.208 156.252 23.224C157.468 25.24 158.076 27.528 158.076 30.088C158.076 32.648 157.468 34.936 156.252 36.952C155.036 38.968 153.356 40.552 151.212 41.704C149.068 42.824 146.636 43.384 143.916 43.384ZM143.916 37.24C145.836 37.24 147.404 36.6 148.62 35.32C149.868 34.008 150.492 32.264 150.492 30.088C150.492 27.912 149.868 26.184 148.62 24.904C147.404 23.592 145.836 22.936 143.916 22.936C141.996 22.936 140.412 23.592 139.164 24.904C137.916 26.184 137.292 27.912 137.292 30.088C137.292 32.264 137.916 34.008 139.164 35.32C140.412 36.6 141.996 37.24 143.916 37.24Z" fill="#26547C"/>
<path d="M128.652 18.808C125.772 17.144 122.684 16.072 119.388 15.592V43H111.612V15.592C108.316 16.072 105.212 17.144 102.3 18.808L99.6592 13C101.964 11.624 104.46 10.584 107.148 9.88C109.836 9.176 112.604 8.82401 115.452 8.82401C118.332 8.82401 121.116 9.176 123.804 9.88C126.524 10.584 129.02 11.624 131.292 13L128.652 18.808Z" fill="#E63946"/>
</svg>
